<svg xmlns="http://www.w3.org/2000/svg" width="114" height="44" viewBox="0 0 114 44"><g fill="none" fill-rule="evenodd"><path fill="#FFFFFF" d="M11.2632925 31.448281h91.0805515V12.5773034H11.2632925z"/><path fill="#009552" d="M36.3233673 18.4022166c-1.3296228 0-2.1880009.9827239-2.1880009 2.5028488v.1997814h4.3386811v-.1997814c0-1.5201249-.8433385-2.5028488-2.1506802-2.5028488"/><path fill="#009552" d="M26.1643141 18.2861424c-.6996255 0-1.5073143.0597113-1.8816362.1383961l-.0952516.0206478v6.9605425l.104721.0133932c.5720665.0831492 1.4293306.138396 1.8721668.138396 1.9406811 0 2.188558-1.545237 2.188558-2.8890185v-1.4922224c0-1.3454556-.2478769-2.8901347-2.188558-2.8901347"/><path fill="#009552" d="M49.1299685 18.3296702c0 .148441-.1431559.1696469-.269601.170763-.7603414-.0948683-1.2254587-.1361639-2.5071772-.1361639-.7397315 0-1.9768878.343758-1.9768878 2.6557541v1.8041717c0 2.3097639 1.2371563 2.6551961 1.9768878 2.6551961 1.2817185 0 1.7468358-.0418536 2.4926946-.1350478h.0573737c.083554 0 .2267099.02288.2267099.1685307v1.2589581c0 .2483317-.0367638.3192039-.3158342.3856117-.2211396.0580371-1.0555656.2466576-2.460944.2466576-2.6837547 0-4.2852065-1.7126517-4.2852065-4.5799064v-1.8041717c0-2.8678127 1.6014518-4.5815805 4.2852065-4.5815805 1.4053784 0 2.2398044.1886205 2.4648432.2477737.2751712.0658497.311935.13728.311935.3861697v1.2572839zm-8.3269924 3.9894908c0 .3175297-.1297872.3621736-.2668158.3621736h-6.4202898v.1796917c0 .777362.2367363 2.5781854 2.4392199 2.5781854 1.3713998 0 2.6932242-.1082615 3.5560586-.1919688h.0579307c.0679573 0 .227824.0161834.227824.1685308v1.2773736c0 .2673054-.0311935.3392937-.3085928.3856117-1.2026207.2204293-1.9629622.3253425-3.7276228.3253425-.7586704 0-4.5536934-.2254517-4.5536934-4.735602v-1.4341854c0-3.0039765 1.688348-4.7958712 4.5163726-4.7958712 2.7622955 0 4.4796088 1.8376547 4.4796088 4.7958712v1.0848469zm-10.1423424.3493385c0 3.0982868-1.5541045 4.735602-4.4963196 4.735602-.5369737 0-1.2070769-.0474342-1.8393022-.1316995l-.1375856-.0206479v3.5659318c0 .1473248-.1186467.2684214-.2657017.2684214h-1.7774723c-.1453839 0-.2651447-.1210966-.2651447-.2684214V17.343598c0-.217639.021167-.3002302.4305817-.4057014 1.2115331-.3125073 2.6503331-.4994537 3.8546248-.4994537 2.9422151 0 4.4963196 1.6395473 4.4963196 4.7378342v1.4922224zm-10.8052041 3.2383571c-.6884851.8415375-1.9401241 1.5307278-4.1827136 1.5307278h-.0033422c-1.3101268 0-2.3584511-.1054712-3.4034332-.3465483-.1314583-.0262283-.2952242-.1188644-.2968952-.3007883v-1.3945639c0-.171879.147612-.2795824.3080357-.2795824.7831796.0987746 2.7427996.195317 3.4307276.195317 1.6515842-.0066965 2.3239154-.5390751 2.3294857-1.8287258-.0016711-.8309347-.4289106-1.2327298-1.6861199-1.9754927l-2.5511823-1.5296117c-1.5819559-.9358478-2.2381334-1.9492644-2.2364623-3.4671571-.000557-1.1880858.3999452-2.0898927 1.1964934-2.6897951.7948771-.6015766 1.9791159-.9006907 3.5465891-.9006907 1.2327001 0 3.0207558.1902946 3.6942011.3465483.1219889.0239961.2751712.1099356.2773993.2823726v1.4313952c-.001114.1478829-.1063921.2606087-.2707149.2606087-1.4349009-.1300253-2.6815266-.1930848-3.8173041-.1930848-1.4209752.0044644-2.1144734.4916409-2.1161445 1.4626458.000557.6930966.3525979 1.0881951 1.6287461 1.7997073l2.3194593 1.2980215c1.8688246 1.0362966 2.6442058 2.1663454 2.6425347 3.8745327 0 .5926478-.1219889 1.5809522-.8093598 2.4241639zm33.7491345 7.0671297c-.0105835-.0111609-.0211671-.0212058-.0311935-.0329248-.1047211-.1210966-.207214-.2421932-.3074788-.3644059-.0172678-.0189736-.0317505-.0390634-.0473473-.057479-.0991507-.1183064-.1955163-.2382868-.2902109-.3588254-.0167108-.0206478-.0323075-.0412956-.0479043-.0608273-.0952515-.1210966-.1899461-.2438673-.2807414-.3655219-.0111406-.0150674-.0222811-.0312508-.0328646-.045202-.4066295-.5463298-.7803944-1.1043785-1.1173956-1.6763785-.001114-.0027903-.0016711-.0027903-.0033422-.0039064-.0679572-.114958-.1325723-.2315902-.1977444-.3465483-.0228381-.0407375-.0462333-.0814751-.0696284-.1222127-.0568167-.1049131-.1119623-.2081521-.166551-.3136234-.0289653-.0541307-.0568167-.1065873-.084668-.16016-.0506895-.0998907-.0997078-.1992234-.1476121-.2968819-.0295224-.0608273-.0584878-.1222127-.0891243-.18304-.0440051-.0965425-.0880102-.1914108-.1314583-.2873951-.0295224-.0652917-.0584878-.1328157-.0880102-.1975493-.0395489-.0931942-.0807689-.1858303-.1192037-.2806985-.0289654-.0708722-.0568167-.1406283-.084111-.2103844-.0362068-.0926361-.0729705-.18304-.1086203-.27456-.0284083-.0758947-.0545886-.1523474-.0818829-.2265678-.0311935-.0887298-.063501-.1757854-.0941375-.2645152-.0339786-.1010068-.0657292-.2031297-.0985937-.3058107-.0395489-.1244449-.0768697-.2472156-.1125194-.3727766-.0295224-.1021229-.0584878-.2014556-.0857821-.3013463-.020053-.0747786-.0378779-.1506732-.0568168-.2271259-.0239521-.0931941-.0479043-.1875044-.0696283-.2823727-.0183819-.0775687-.0334216-.1545795-.0512465-.2310322-.0206099-.0948682-.0412199-.1897365-.0584878-.2857209-.0150397-.0758947-.0289654-.1545795-.043448-.2288-.0167108-.0976586-.0339787-.1953171-.0484614-.2918595-.0122546-.0764527-.0239521-.1523474-.0350927-.2299161-.0133686-.0982166-.0261802-.1992235-.0389918-.2979981-.0089125-.0747785-.0189389-.1478829-.0261803-.2226615-.0111405-.1049131-.02061-.2109424-.0295224-.3147395-.0061273-.0708722-.0122546-.1395122-.0178249-.2103844-.0072413-.1171902-.0133686-.2338224-.0189389-.3498965-.0033421-.0602693-.0072413-.1183064-.0094694-.1774596-.0061273-.1763434-.0105835-.355477-.0105835-.5307043 0-.1796917.0044562-.3554771.0105835-.5312625.0022281-.0585951.0061273-.1171902.0094694-.1757853.0055703-.1177483.0116976-.2354966.0189389-.3515708.0050133-.0708722.0116976-.1400702.0178249-.2098263.0089124-.1049132.0183819-.2098264.0295224-.3158556.0072414-.0731044.0167108-.1467669.0256232-.2209873.0133687-.0998908.0256233-.2003396.0395489-.3002303.0111406-.0758946.0228381-.1506732.0334216-.2265678.0161538-.0976585.0334217-.194201.0495754-.2924176.0139257-.0758946.0272943-.1523473.0428911-.2271258.0178248-.0971005.0384348-.1936429.0596018-.2896273.0161538-.0753366.0317506-.1506732.0490184-.2254517.0222811-.0987747.0473473-.1958752.0724135-.2929756.0178248-.0725464.0350926-.1445347.0551456-.2159649.0300795-.1155161.062944-.2293581.0963656-.3437581.0345357-.1183063.0707424-.2354966.1086202-.3526868.0300795-.0948683.0590449-.1897366.0913524-.2840468.0295224-.0859395.0607159-.1718791.0907954-.2578186.0278513-.0775687.0562597-.1556956.084668-.2332644.0345357-.0881717.0690713-.1780175.1052781-.2673053.0278513-.0719883.0562597-.1450927.0863391-.2159649.0373208-.0926361.0774267-.1841561.1169756-.2756761.0284084-.0669659.0590449-.1350478.0891243-.2031298.0428911-.0943102.0863391-.1886204.1309013-.2823726.0278513-.0613854.0584878-.1233288.0880102-.1852722.0484613-.0971005.0969227-.1964332.1470551-.2935337.0261802-.0535727.0557026-.1065873.0829969-.1612761.0551457-.1037971.1097343-.2087102.166551-.3119493.019496-.0362731.04122-.0714302.0607159-.1071453.3046936-.5457717.6411378-1.0798244 1.0082184-1.6038322.0100265-.0156254.021167-.0306927.0311935-.0463181.084668-.1199805.1721212-.2399609.2601315-.3599414.0189389-.0245542.0378778-.0502244.0557026-.0742205.0868962-.1177483.1765775-.2343805.2668158-.3498966.0189389-.0256702.0395489-.0491083.0584878-.0747785.0924665-.1171903.186047-.2343805.2824126-.3504547.0155967-.0206478.0328646-.0390634.0495754-.0597112.1008218-.1222127.2027577-.2427512.3069217-.3638478.0066843-.0066966.0128116-.0133932.0178248-.0195317.8088028-.9308254 1.7173134-1.8164488 2.7149482-2.6518478.0022281-.0011161.0055703-.0033483.0072414-.0061385.1420418-.1188644.2868687-.2371708.4328097-.353803C50.8244437 3.315926 42.0117241.3292488 32.1651629.3292488c-17.7602397 0-32.1577092 9.712839-32.1577092 21.6913561 0 11.9807492 14.3974695 21.6924722 32.1577092 21.6924722 9.8744125 0 18.7082992-3.0028605 24.6066551-7.7278595h-.0005571c-1.1764404-.9391961-2.2375763-1.9464742-3.1666968-3.0112313z"/><path fill="#009552" d="M65.0241687 20.9876566v-.9737951c0-1.1021464-.4294676-1.5123122-1.1552734-1.6395474.0233951.0926361.0456762.1841561.0674002.2756761.0178249.0758947.0334216.1534635.0506895.2293581.0200529.0948683.0401059.1908527.0596018.2873951.0144827.0753366.0278514.1529054.041777.2288.0172679.0965425.0339787.1936429.0495754.2918595.0122546.0747786.0233951.1512312.0339786.2271259.0150398.0993327.0272943.1997814.040106.3002302.0089124.0742205.0178248.147883.0261802.2221034.0100265.1043552.020053.2092683.0289654.3147396.0055703.069756.0128116.1406282.0167108.2098263.0016711.0089288.0027851.0178576.0033422.0262283h.7369463"/><path fill="#009552" d="M64.3050472 22.7265366c-.0055702.1183063-.0116975.2343805-.0194959.3526868-.0055703.06864-.0122546.1395122-.0172678.2081522-.0100265.1060293-.020053.2109424-.0300795.3152976-.0083554.0736624-.0167108.148999-.0261802.2221034-.0122546.1010068-.0250662.2008975-.040106.3007883-.0105835.0764527-.021724.1501151-.0334216.2254517-.0155967.0982166-.0328645.1958751-.0495753.2935336-.0139257.0753366-.0278514.1512313-.04122.2265678-.019496.0971005-.0401059.193643-.0607159.2885113-.0161538.0764527-.0323076.1517892-.0495754.2260097-.0066843.0312508-.0139257.0608273-.021167.09152.3570541-.0948683.7152223-.2360546 1.0460961-.4190946l.06183-.0351571v-2.574279h-.7074239c-.0011141.034041-.0011141.06864-.0022281.1021229-.0022281.0597112-.0061273.1177483-.0094695.1757854"/><path fill="#009552" d="M98.2675229 27.4041015c-.8043465 0-2.3796181-.1010069-3.4301705-.3828215-.1815907-.046318-.2757282-.1545795-.2757282-.3281327v-1.1607414c0-.0920781.0846681-.1880625.207214-.1880625l.0618299-.0022322c.9291206.1160742 2.6653728.2154068 3.2625055.2154068 1.3129119 0 1.4933886-.5055921 1.4933886-1.0513639 0-.4442068-.2941101-.7076058-.9068395-1.0904273l-2.6497761-1.6267122c-.9792529-.6010185-1.5635739-1.5619785-1.5635739-2.5686985 0-1.8716956 1.1602866-2.7818732 3.5493742-2.7818732 1.5156697 0 2.1919001.1395122 3.2318691.3638478.173235.0440859.256232.147883.256232.3286908v1.121678c0 .1635083-.064615.2472156-.188832.2472156l-.059602.0016742c-.548671-.0803591-1.92397-.2154069-3.0268829-.2154069-.7191215 0-1.4555108.1099356-1.4555108.9341737 0 .3978888.3865765.629479.8333119.8973424l2.5300158 1.5480274c1.656597 1.0083941 1.795854 1.9955824 1.795854 2.8404682 0 1.7896625-1.402594 2.8979474-3.6646791 2.8979474zm-4.7375121-9.3143922c0 .1450927-.1192038.2656312-.2657018.2656312-.959757 0-1.7746871.2126166-2.7255317.7109541l-.0646151.0345991v7.8629073c0 .1523473-.125888.286837-.2651447.286837h-1.7802574c-.1403707 0-.2662588-.1344897-.2662588-.286837V16.8296351c0-.1478829.1214319-.2667473.2662588-.2667473h1.6822207c.145941 0 .2662588.1188644.2662588.2667473v.6545912l.1949593-.1517892c.9630992-.7483434 1.9947127-.9045971 2.6921101-.9045971.146498 0 .2657018.1183063.2657018.2650732v1.3967961zm-6.7539489 4.2294517c0 .3175297-.1275592.3621736-.2651448.3621736h-6.4219609v.1796917c0 .777362.2372933 2.5781854 2.439777 2.5781854 1.3713997 0 2.6937812-.1082615 3.5538304-.1919688h.0596019c.0674002 0 .2278239.0161834.2278239.1685308v1.2773736c0 .2673054-.0306365.3392937-.3074788.3856117-1.2031777.2204293-1.9629621.3253425-3.7265087.3253425-.7620125 0-4.5575925-.2254517-4.5575925-4.735602v-1.4341854c0-3.0039765 1.690576-4.7958712 4.5186007-4.7958712 2.7611814 0 4.4790518 1.8376547 4.4790518 4.7958712v1.0848469zm-9.3697464-5.4543688l-2.4364348 8.8115902c-.3091499 1.1456742-1.0817459 1.7277191-2.2977352 1.7277191-1.2026207 0-1.9685324-.5820449-2.2787963-1.7277191 0 0-2.4353208-8.8115902-2.4447902-8.832238l-.0055703-.0820332c0-.1065873.0818829-.1880624.188275-.1880624h1.9323257c.1242169 0 .2255958.1121678.2701579.2924175l1.8532279 8.110123c.0818829.3839375.2445347.5809287.4851703.5809287.2417496 0 .4060725-.1969912.4851702-.5781385l1.8560131-8.1129132c.0473472-.2014556.1765774-.2924175.2857547-.2924175h1.9339967c.1069491 0 .187718.0814751.187718.1880624 0 0-.0061273.0814751-.0144827.102681zM81.3305687.2896273c-9.8744125 0-18.7077422 3.0039766-24.6072121 7.7289756.0005571 0 .0011141.0011161.0022281.0016742 1.1747694.937522 2.2347912 1.9425678 3.1627977 3.0056507.0116976.0128351.0233951.0262283.0345357.0396215.104721.1188644.2055428.2377287.3063647.3593834.0167108.0200897.0339786.0396214.0506894.0602693.0969226.1183063.1927312.2366126.2863117.3560351.0172679.0212058.0345357.0429697.0523605.0647336.0935805.1205386.186604.2416352.2768423.3632898.0122546.0161834.0250662.0323668.0373208.0496663.4032873.5418654.7742671 1.097682 1.1090402 1.6657756.0027851.0039064.0061273.0072547.0083554.0117191.0668432.1138419.1314583.2288.1960734.3432.0233951.0418536.0479043.0831492.0712994.1250029.0557027.103239.1108483.2070361.1648799.3108332.0289654.0546887.0590448.1088195.0863392.1635083.0506894.0976585.0985937.1958751.147055.2946497.0295224.0619434.0596019.1227707.0891243.1841561.0434481.0954263.0885672.1908527.1320153.286279.0295224.0664078.0590448.1328156.0874532.1997815.040663.0931941.0807689.1852722.1192037.2790244.0300795.0708722.0568167.1417444.0857821.2131746.0050133.0139512.0116976.0279025.0167108.0429698 2.7116061.0133931 4.0874621 1.2148722 4.0874621 3.5748605v6.9717034c0 .1456507-.1203178.2650731-.2634737.2650731H65.425785c-.145941 0-.2657018-.1194224-.2657018-.2650731v-.5273561l-.1843758.1132839c-.5397589.3292488-1.0739475.5586068-1.5997807.6930966-.0122546.0334829-.0239522.0675239-.0367638.1010068-.0339786.0909619-.0696283.1808078-.1058351.2695376-.0278513.0708722-.0568167.1428604-.0857821.2154068-.0384348.092078-.0779837.183598-.1169756.275118-.0295224.0675239-.0590448.1350478-.0896813.2008976-.042334.0948683-.0863391.1891785-.1297872.2840468-.0295224.0625015-.0596019.1238869-.0896813.1847142-.0484613.0987746-.0963656.1969912-.145941.2940917-.0278514.0552468-.0551457.1065873-.083554.160718-.0545886.1049132-.1097343.2092683-.167108.3130654-.019496.034599-.0395489.0708722-.060716.1054712-.3041365.5463298-.6400236 1.0814986-1.0065472 1.6049483-.0111406.0150673-.0217241.0312507-.0328646.0463181-.084111.1194224-.1715642.240519-.2595745.3588253-.0183818.0262283-.0373207.0524566-.0551456.0764527-.0880102.1171902-.1760204.2343805-.2668158.3487805-.0194959.0251122-.0389919.0513405-.0601589.0747785-.0919094.1183064-.1854899.2343805-.2807414.3498966-.0167108.0206478-.0334216.0407376-.0501324.0613854-.1013789.1210966-.2027578.2416351-.3063647.3627317-.0066844.0066966-.0128117.0145093-.0189389.0212058-.8082458.9302674-1.7161993 1.8153327-2.7143912 2.6490576-.0022281.0027902-.0055703.0066966-.0089124.0089288-.1414848.1188644-.2846407.2354966-.4305817.3532449 5.8989129 4.7037931 14.7105185 7.68768 24.5576367 7.68768 17.7607968 0 32.1582663-9.7128391 32.1582663-21.6891239 0-11.9818654-14.3974695-21.6941464-32.1582663-21.6941464z"/><path fill="#009552" d="M82.2970101 18.4022166c-1.3301798 0-2.1902291.9827239-2.1902291 2.5028488v.1997814h4.3392381v-.1997814c0-1.5201249-.8433384-2.5028488-2.149009-2.5028488"/><path fill="#009552" d="M57.2124261 35.6230439c.9981919-.8337249 1.9061454-1.7187902 2.7143912-2.6490576-.8088028.9302674-1.7161993 1.8153327-2.7143912 2.6490576"/><path fill="#009552" d="M53.6045641 32.9739863c.9291205 1.0647571 1.9902564 2.0720352 3.1666968 3.0112313-1.1764404-.9391961-2.2375763-1.9464742-3.1666968-3.0112313"/><path fill="#009552" d="M56.2833055 8.3785444c-.9976348.835399-1.9061454 1.7210224-2.7149482 2.6518478.8088028-.9308254 1.7173134-1.8164488 2.7149482-2.6518478"/><path fill="#009552" d="M53.2436108 11.5737334c.1720681-.1759421.3460375-.3494741.5238095-.5238095-.177772.1743354-.3517414.3478674-.5238095.5238095"/><path fill="#009552" d="M52.9116228 11.9972925c.1715037-.1751593.3450738-.3503185.5238096-.5238096-.1787358.1734911-.3523059.3486503-.5238096.5238096"/><path fill="#009552" d="M59.9229181 11.0655493c.1790476.1732475.3514285.3464951.5238095.5238095-.172381-.1773144-.3447619-.350562-.5238095-.5238095"/><path fill="#009552" d="M52.5863192 12.4225256c.1705935-.176274.3455612-.3508772.5238096-.5238095-.1771548.1729323-.3532161.3475355-.5238096.5238095"/><path fill="#009552" d="M52.2704851 12.8466427c.1704905-.1746032.3465892-.3492064.5238095-.5238095-.1772203.1746031-.353319.3492063-.5238095.5238095"/><path fill="#009552" d="M51.2310732 14.3329249c.3046936-.5457717.6411378-1.0798244 1.0082184-1.6038322-.3670806.5240078-.7035248 1.0580605-1.0082184 1.6038322"/><path fill="#009552" d="M61.4889246 31.3199298c-.1697323.1743316-.3462089.3511071-.5238096.5238095.1776007-.1727024.3540773-.3494779.5238096-.5238095"/><path fill="#009552" d="M62.2641013 29.6686634c-.3041365.5463298-.6400236 1.0814986-1.0065472 1.6049483.3665236-.5234497.7024107-1.0586185 1.0065472-1.6049483"/><path fill="#009552" d="M61.1669631 31.7552078c-.1727806.176-.3455612.352-.5238095.5238095.1782483-.1718095.3510289-.3478095.5238095-.5238095"/><path fill="#009552" d="M53.7897013 33.1004651c-.1783989-.1740684-.353002-.3481368-.5238095-.5238095.1708075.1756727.3454106.3497411.5238095.5238095"/><path fill="#009552" d="M60.8260628 32.1787668c-.1714853.1771095-.3460885.3508772-.5238095.5238096.177721-.1729324.3523242-.3467001.5238095-.5238096"/><path fill="#009552" d="M57.2967415 35.6319727c-.1721185.1762582-.3462699.3492063-.5238095.5238095.1775396-.1746032.351691-.3475513.5238095-.5238095"/><path fill="#009552" d="M60.4695657 32.5900488c-.1733333.1748718-.3466667.3489377-.5238095.5238095.1771428-.1748718.3504762-.3489377.5238095-.5238095"/><path fill="#009552" d="M59.8883824 11.0259278c-.9280065-1.063083-1.9880283-2.0681288-3.1627977-3.0056507 1.1747694.9369639 2.2347912 1.9425678 3.1627977 3.0056507"/><path fill="#009552" d="M60.6186444 11.9059707c.1770624.1737986.3530708.3484018.5238096.5238096-.1707388-.1754078-.3467472-.350011-.5238096-.5238096"/><path fill="#009552" d="M62.0502031 13.9964215c.1785714.1737514.3511905.3492063.5238095.5238095-.172619-.1746032-.3452381-.3500581-.5238095-.5238095"/><path fill="#009552" d="M60.2799722 11.485202c.1773207.1740558.3526033.3481116.5238095.5238095-.1712062-.1756979-.3464888-.3497537-.5238095-.5238095"/><path fill="#009552" d="M56.8143564 8.018603c-.1766256.1726753-.3519029.3478293-.5238095.5238094.1719066-.1759801.3471839-.351134.5238095-.5238095"/><path fill="#009552" d="M53.1234974 32.2578115c-.1777211-.1735369-.3544029-.3494729-.5238095-.5238095.1694066.1743366.3460884.3502726.5238095.5238095"/><path fill="#009552" d="M53.4521432 32.6841607c-.1789599-.1727023-.3528928-.3478486-.5238096-.5238095.1709168.1759609.3448497.3511072.5238096.5238095"/><path fill="#009552" d="M51.7721506 30.1857764c-.1800134-.1737597-.3511737-.3500499-.5238095-.5238096.1726358.1737597.3437961.3500499.5238095.5238096"/><path fill="#009552" d="M52.5668233 31.6888c-.4066295-.5463298-.7803944-1.1054946-1.1173956-1.6763785.3370012.572.7107661 1.1300487 1.1173956 1.6763785"/><path fill="#009552" d="M60.9328075 12.3189268c.4032873.5418654.7742671 1.097682 1.1090402 1.6657756-.3347731-.5680936-.7057529-1.1239102-1.1090402-1.6657756"/><path fill="#007446" d="M56.7712609 35.9852176h.0005571"/><path fill="#00693C" d="M57.4697724 17.1270751v1.1227942c0 .1629502-.0651721.2460995-.188832.2460995l-.0601589.0016741c-.5497854-.0786849-1.9206281-.2115005-3.024098-.2115005-.7191215 0-1.4543968.1099356-1.4543968.9341737 0 .3978888.3854625.629479.8310839.8973424L56.1045 21.6656859c1.6577114 1.0083941 1.7964111 1.9955824 1.7964111 2.8404682 0 1.7896625-1.4037073 2.8979474-3.6646787 2.8979474-.8054607 0-2.3807322-.1010069-3.4307276-.3828215-.1810337-.046318-.2746141-.1545795-.2746141-.3281327v-1.1607414c0-.0920781.083554-.1880625.2066569-.1880625l.0612729-.0022322c.9285635.1160742 2.6642588.2154068 3.2630625.2154068 1.3123549 0 1.4922746-.5055921 1.4922746-1.0513639 0-.4442068-.291325-.7076058-.9068395-1.0904273l-2.648105-1.6267122c-.980367-.6010185-1.5658021-1.5619785-1.5658021-2.5686985 0-1.8716956 1.1625147-2.7818732 3.5510453-2.7818732 1.5145556 0 2.189115.136722 3.2279698.3616156.1737923.0429698.2573463.1473249.2573463.3270166zm-1.1864669-8.7485307c-.9976348.835399-1.9061454 1.7210224-2.7149482 2.6518478-.0050132.0061385-.0111405.0128351-.0178248.0195317-.104164.1210966-.2060999.2416351-.3069217.3638478-.0167108.0206478-.0339787.0390634-.0495754.0597112-.0963656.1160742-.1899461.2332644-.2824126.3504547-.0189389.0256702-.0395489.0491083-.0584878.0747785-.0907953.1155161-.1799196.2321483-.2668158.3498966-.0178248.0239961-.0367637.0496663-.0557026.0742205-.0880103.1199805-.1754635.2399609-.2601315.3599414-.0100265.0156254-.021167.0306927-.0311935.0463181-.3670806.5240078-.7035248 1.0580605-1.0082184 1.6038322-.0194959.0357151-.0412199.0708722-.0607159.1071453-.0568167.1032391-.1114053.2081522-.166551.3119493-.0272943.0546888-.0568167.1077034-.0829969.1612761-.0501324.0971005-.0985938.1964332-.1470551.2935337-.0295224.0619434-.0601589.1238868-.0880102.1852722-.0445622.0937522-.0880102.1880624-.1309013.2823726-.0300794.068082-.0607159.1361639-.0891243.2031298-.0395489.09152-.0796548.18304-.1169756.2756761-.0300794.0708722-.0584878.1439766-.0863391.2159649-.0362068.0892878-.0707424.1791336-.1052781.2673053-.0284083.0775688-.0568167.1556957-.084668.2332644-.0300795.0859395-.061273.1718791-.0907954.2578186-.0317505.0943102-.0612729.1891785-.0913524.2840468-.0378778.1171902-.0740845.2343805-.1086202.3526868-.0334216.1144-.0662861.228242-.0963656.3437581-.020053.0714302-.0373208.1434185-.0551456.2159649-.0250662.0971004-.0501324.1942009-.0724135.2929756-.0172678.0747785-.0328646.1501151-.0490184.2254517-.021167.0959844-.041777.1925268-.0596018.2896273-.0155968.0747785-.0289654.1512312-.0428911.2271258-.0161537.0982166-.0334216.1947591-.0495754.2924176-.0105835.0758946-.022281.1506732-.0334216.2265678-.0139256.0998907-.0261802.2003395-.0395489.3002303-.0089124.0742204-.0183818.1478829-.0256232.2209873-.0111405.1060292-.02061.2109424-.0295224.3158556-.0061273.0697561-.0128116.1389541-.0178249.2098263-.0072413.1160742-.0144826.2338225-.0189389.3515708-.0033421.0585951-.0072413.1171902-.0094694.1757853-.0061273.1757854-.0105835.3515708-.0105835.5312625 0 .1752273.0044562.3543609.0105835.5307043.0022281.0591532.0061273.1171903.0094694.1774596.0055703.1160741.0116976.2327063.0189389.3498965.0055703.0708722.0116976.1395122.0178249.2103844.0089124.1037971.0183819.2098264.0295224.3147395.0072414.0747786.0172678.147883.0261803.2226615.0128116.0987746.0256232.1997815.0389918.2979981.0111406.0775687.0228381.1534634.0350927.2299161.0144827.0965424.0317506.1942009.0484614.2918595.0144826.0742205.0284083.1529053.043448.2288.0172679.0959844.0378779.1908527.0584878.2857209.0178249.0764527.0328646.1534635.0512465.2310322.021724.0948683.0456762.1891786.0696283.2823727.0189389.0764527.0367638.1523473.0568168.2271259.0272943.0998907.0562597.1992234.0857821.3013463.0356497.125561.0729705.2483317.1125194.3727766.0328645.102681.0646151.2048039.0985937.3058107.0306365.0887298.062944.1757854.0941375.2645152.0272943.0742204.0534746.1506731.0818829.2265678.0356498.09152.0724135.1819239.1086203.27456.0272943.0697561.0551456.1395122.084111.2103844.0384348.0948682.0796548.1875043.1192037.2806985.0295224.0647336.0584878.1322576.0880102.1975493.0434481.0959843.0874532.1908526.1314583.2873951.0306365.0608273.0596019.1222127.0891243.18304.0479043.0976585.0969226.1969912.1476121.2968819.0278513.0535727.0557027.1060293.084668.16016.0545887.1054713.1097343.2087103.166551.3136234.0233951.0407376.0467903.0814752.0696284.1222127.0651721.1149581.1297872.2315903.1977444.3465483.0016711.0011161.0022282.0011161.0033422.0039064.3370012.5708839.7107661 1.1300487 1.1173956 1.6763785.0105835.0139512.021724.0301346.0328646.045202.0907953.1216546.1854899.2444253.2807414.3655219.0155968.0195317.0311935.0401795.0479043.0608273.0946946.1205386.1910602.240519.2902109.3588254.0155968.0184156.0300795.0385054.0473473.057479.1002648.1222127.2027577.2433093.3074788.3644059.0100264.011719.02061.0217639.0311935.0329248.9291205 1.0647571 1.9902564 2.0720352 3.1666968 3.0112313h.0016711c.145941-.1177483.2890969-.2343805.4305817-.3532449.0033421-.0022322.0066843-.0061386.0089124-.0089288.9981919-.8337249 1.9055884-1.7187902 2.7143912-2.6490576.0061272-.0066965.0122545-.0145092.0189389-.0212058.1036069-.1210966.2049858-.2416351.3063647-.3627317.0167108-.0195317.0334216-.0407376.0501324-.0613854.0952515-.1155161.188832-.2315902.2807414-.3498966.021167-.023438.040663-.0496663.0601589-.0747785.0907954-.1144.1788056-.2315903.2668158-.3487805.0178249-.0239961.0367638-.0502244.0551456-.0764527.0880103-.1183063.1754635-.2394029.2595745-.3588253.0111405-.0150674.021724-.0312508.0328646-.0463181.3665236-.5234497.7024107-1.0586185 1.0065472-1.6049483.0211671-.034599.04122-.0708722.060716-.1054712.0573737-.1037971.1125194-.2081522.167108-.3130654.0284083-.0541307.0557026-.1054712.083554-.160718.0495754-.0971005.0974797-.1953171.145941-.2940917.0300794-.0608273.0601589-.1222127.0896813-.1847142.0434481-.0948683.0874532-.1891785.1297872-.2840468.0306365-.0658498.0601589-.1333737.0896813-.2008976.0389919-.09152.0785408-.18304.1169756-.275118.0289654-.0725464.0579308-.1445346.0857821-.2154068.0362068-.0887298.0712994-.1785757.1058351-.2695376.0128116-.0334829.0239521-.0675239.0362067-.1010068-.3581681.092078-.7135512.1395122-1.0616929.1395122-1.4705505 0-3.2229565-.537401-3.2229565-3.1105639v-.0786849c0-2.231079 1.4165189-3.2271961 4.5965844-3.2271961h.5993607c-.001114-.0083707-.001114-.0172995-.0027851-.0262283-.0038992-.0691981-.0111405-.1400703-.0167108-.2098263-.0089124-.1054713-.0189389-.2103844-.0289654-.3147396-.0083554-.0742204-.0172678-.1478829-.0261802-.2221034-.0128117-.1004488-.0250662-.2008975-.040106-.3002302-.0105835-.0758947-.021724-.1523473-.0339786-.2271259-.0155967-.0982166-.0323075-.195317-.0495754-.2918595-.0139256-.0758946-.0272943-.1534634-.041777-.2288-.0194959-.0965424-.0395489-.1925268-.0596018-.2873951-.0172679-.0758946-.0328646-.1534634-.0506895-.2293581-.021724-.09152-.0440051-.18304-.0674002-.2756761-.2010866-.034599-.4227833-.0491082-.667318-.0491082-1.2349282 0-2.5261161.0781268-3.1499861.1545795h-.0941375c-.1771345 0-.2278239-.0479922-.2278239-.2081522v-1.2394264c0-.1099356.0328646-.2315902.271829-.2873951.7018537-.1400702 1.8242625-.3063688 3.2001185-.3063688.0155968 0 .0300794.0005581.0445621.0005581-.0055702-.0150673-.0116975-.0290186-.0167108-.0429698-.0289654-.0714302-.0557026-.1423024-.0857821-.2131746-.0384348-.0937522-.0785407-.1858303-.1192037-.2790244-.0284084-.0669659-.0579308-.1333737-.0874532-.1997815-.0434481-.0954263-.0885672-.1908527-.1320153-.286279-.0295224-.0613854-.0596019-.1222127-.0891243-.1841561-.0484613-.0987746-.0963656-.1969912-.147055-.2946497-.0272944-.0546888-.0573738-.1088196-.0863392-.1635083-.0540316-.1037971-.1091772-.2075942-.1648799-.3108332-.0233951-.0418537-.0479043-.0831493-.0712994-.1250029-.0646151-.1144-.1292302-.2293581-.1960734-.3432-.0022281-.0044644-.0055703-.0078127-.0083554-.0117191-.3347731-.5680936-.7057529-1.1239102-1.1090402-1.6657756-.0122546-.0172995-.0250662-.0334829-.0373208-.0496663-.0902383-.1216546-.1832618-.2427512-.2768423-.3632898-.0178248-.0217639-.0350926-.0435278-.0523605-.0647336-.0935805-.1194225-.1893891-.2377288-.2863117-.3560351-.0167108-.0206479-.0339786-.0401796-.0506894-.0602693-.1008219-.1216547-.2016437-.240519-.3063647-.3593834-.0111406-.0133932-.0228381-.0267864-.0345357-.0396215-.9280065-1.063083-1.9880283-2.0686868-3.1627977-3.0056507-.001114-.000558-.001671-.0016742-.0022281-.0016742-.145941.1166322-.2907679.2349386-.4328097.353803-.0016711.0027902-.0050133.0050224-.0072414.0061385z"/><path fill="#00693C" d="M63.986985 25.1596293c.02061-.0948683.0412199-.1914108.0607159-.2885113.0139256-.0753365.0272943-.1512312.04122-.2265678.0167108-.0976585.0339786-.195317.0495753-.2935336.0116976-.0753366.0228381-.148999.0334216-.2254517.0150398-.0998908.0278514-.1997815.040106-.3007883.0094694-.0731044.0178248-.148441.0261802-.2221034.0100265-.1043552.020053-.2092683.0300795-.3152976.0050132-.06864.0116975-.1395122.0172678-.2081522.0077984-.1183063.0139257-.2343805.0194959-.3526868.0033422-.0580371.0072414-.1160742.0094695-.1757854.001114-.0334829.000557-.0680819.0016711-.1021229h-.6288832c-1.8888776 0-2.2682128.6769132-2.2682128 1.7662244v.0786849c0 1.1004722.5776367 1.3220175 1.5134416 1.3220175.313606 0 .6483791-.0479922.9820381-.13728.0072413-.0318088.0161538-.0613853.0228381-.0926361.0172678-.0742205.0334216-.149557.0495754-.2260097"/></g></svg>